<svg xmlns="http://www.w3.org/2000/svg" width="333" height="128" viewBox="0 0 333 128" fill="none">
<defs>
  <linearGradient id="lmagma" x1="40" y1="30" x2="100" y2="100" gradientUnits="userSpaceOnUse"><stop stop-color="#ff5d73"></stop><stop offset="1" stop-color="#ff9e3d"></stop></linearGradient>
  <linearGradient id="ltile" x1="0" y1="0" x2="0" y2="128" gradientUnits="userSpaceOnUse"><stop stop-color="#161b26"></stop><stop offset="1" stop-color="#0b0e14"></stop></linearGradient>
  <radialGradient id="lglow" cx="0.5" cy="0.5" r="0.5"><stop stop-color="#ff7a4d" stop-opacity="0.45"></stop><stop offset="1" stop-color="#ff5d73" stop-opacity="0"></stop></radialGradient><linearGradient id="mgT" x1="0" y1="0" x2="1" y2="1"><stop stop-color="#ff5d73"></stop><stop offset="1" stop-color="#ff9e3d"></stop></linearGradient></defs>
<g transform="translate(14,22) scale(0.65625)">
  <rect width="128" height="128" rx="30" fill="url(#ltile)"></rect>
  <rect x="0.75" y="0.75" width="126.5" height="126.5" rx="29.25" fill="none" stroke="#ffffff" stroke-opacity="0.10" stroke-width="1.5"></rect>
  <circle cx="70" cy="64" r="34" fill="url(#lglow)"></circle>
  <path d="M50 38 L98 64 L50 90 Z" fill="url(#lmagma)" stroke="url(#lmagma)" stroke-width="15" stroke-linejoin="round" stroke-linecap="round"></path></g><path d="M145.86 80.72L122.53 80.72L122.53 47.27L145.86 47.27L145.86 53.83L130.62 53.83L130.62 60.69L144.67 60.69L144.67 67.28L130.62 67.28L130.62 74.15L145.86 74.15L145.86 80.72ZM158.91 66.41L158.91 66.41L158.91 80.72L150.92 80.72L150.92 55.63L158.52 55.63L158.52 60.24L158.80 60.24Q159.63 57.93 161.64 56.62Q163.65 55.30 166.42 55.30L166.42 55.30Q169.07 55.30 171.02 56.49Q172.98 57.67 174.06 59.79Q175.15 61.90 175.13 64.73L175.13 64.73L175.13 80.72L167.14 80.72L167.14 66.30Q167.16 64.21 166.09 63.03Q165.02 61.85 163.13 61.85L163.13 61.85Q161.87 61.85 160.91 62.40Q159.96 62.95 159.44 63.96Q158.93 64.97 158.91 66.41ZM191.79 90.65L191.79 90.65Q188.22 90.65 185.67 89.66Q183.12 88.66 181.67 86.93Q180.21 85.20 179.92 83.01L179.92 83.01L187.48 82.58Q187.69 83.35 188.27 83.92Q188.85 84.49 189.79 84.80Q190.73 85.12 192.01 85.12L192.01 85.12Q194.01 85.12 195.33 84.14Q196.64 83.17 196.64 80.75L196.64 80.75L196.64 76.34L196.37 76.34Q195.89 77.50 194.93 78.42Q193.97 79.33 192.54 79.86Q191.11 80.38 189.26 80.38L189.26 80.38Q186.52 80.38 184.24 79.10Q181.96 77.81 180.60 75.11Q179.23 72.41 179.23 68.14L179.23 68.14Q179.23 63.75 180.64 60.90Q182.04 58.05 184.32 56.68Q186.60 55.30 189.23 55.30L189.23 55.30Q191.21 55.30 192.62 55.98Q194.03 56.66 194.95 57.72Q195.86 58.78 196.33 59.93L196.33 59.93L196.56 59.93L196.56 55.63L204.52 55.63L204.52 80.82Q204.52 84.00 202.92 86.19Q201.32 88.38 198.44 89.52Q195.57 90.65 191.79 90.65ZM192.04 74.56L192.04 74.56Q193.49 74.56 194.52 73.79Q195.55 73.03 196.11 71.59Q196.66 70.15 196.66 68.14L196.66 68.14Q196.66 66.10 196.11 64.62Q195.57 63.14 194.53 62.34Q193.49 61.54 192.04 61.54L192.04 61.54Q190.55 61.54 189.52 62.36Q188.49 63.18 187.96 64.66Q187.43 66.13 187.43 68.14L187.43 68.14Q187.43 70.15 187.97 71.59Q188.51 73.03 189.53 73.79Q190.55 74.56 192.04 74.56ZM221.33 81.19L221.33 81.19Q217.39 81.19 214.54 79.63Q211.69 78.07 210.16 75.18Q208.63 72.28 208.63 68.27L208.63 68.27Q208.63 64.39 210.17 61.47Q211.71 58.55 214.50 56.93Q217.29 55.30 221.08 55.30L221.08 55.30Q223.76 55.30 225.98 56.14Q228.20 56.97 229.82 58.60Q231.44 60.24 232.34 62.63Q233.24 65.02 233.24 68.11L233.24 68.11L233.24 70.10L211.43 70.10L211.43 65.46L225.80 65.46Q225.79 64.19 225.20 63.19Q224.61 62.20 223.59 61.63Q222.57 61.07 221.25 61.07L221.25 61.07Q219.91 61.07 218.84 61.67Q217.78 62.26 217.16 63.28Q216.54 64.30 216.51 65.59L216.51 65.59L216.51 70.32Q216.51 71.85 217.11 73.00Q217.72 74.15 218.83 74.79Q219.94 75.43 221.47 75.43L221.47 75.43Q222.54 75.43 223.40 75.13Q224.27 74.84 224.89 74.27Q225.51 73.70 225.82 72.86L225.82 72.86L233.15 73.08Q232.70 75.54 231.15 77.36Q229.61 79.19 227.11 80.19Q224.61 81.19 221.33 81.19ZM237.34 47.27L245.32 47.27L245.32 80.72L237.34 80.72L237.34 47.27Z" fill="#0b0e14"></path><path d="M281.96 63.99L281.96 63.99Q281.96 69.52 279.84 73.35Q277.72 77.19 274.10 79.19Q270.48 81.18 265.99 81.18L265.99 81.18Q261.48 81.18 257.87 79.17Q254.26 77.16 252.14 73.33Q250.03 69.50 250.03 63.99L250.03 63.99Q250.03 58.47 252.14 54.63Q254.26 50.79 257.87 48.80Q261.48 46.81 265.99 46.81L265.99 46.81Q270.48 46.81 274.10 48.80Q277.72 50.79 279.84 54.63Q281.96 58.47 281.96 63.99ZM273.70 63.99L273.70 63.99Q273.70 60.73 272.78 58.47Q271.85 56.22 270.13 55.06Q268.41 53.90 265.99 53.90L265.99 53.90Q263.59 53.90 261.86 55.06Q260.12 56.22 259.20 58.47Q258.28 60.73 258.28 63.99L258.28 63.99Q258.28 67.26 259.20 69.52Q260.12 71.77 261.86 72.93Q263.59 74.09 265.99 74.09L265.99 74.09Q268.41 74.09 270.13 72.93Q271.85 71.77 272.78 69.52Q273.70 67.26 273.70 63.99ZM312.49 57.30L304.75 57.30Q304.59 55.50 303.31 54.49Q302.02 53.49 299.65 53.49L299.65 53.49Q298.09 53.49 297.04 53.90Q296.00 54.31 295.47 55.02Q294.95 55.73 294.93 56.64L294.93 56.64Q294.90 57.39 295.24 57.97Q295.57 58.54 296.22 58.97Q296.86 59.40 297.78 59.73Q298.69 60.06 299.83 60.30L299.83 60.30L302.71 60.96Q305.19 61.49 307.10 62.39Q309.00 63.29 310.30 64.53Q311.60 65.77 312.27 67.39Q312.94 69.01 312.95 71.02L312.95 71.02Q312.94 74.19 311.35 76.46Q309.77 78.73 306.80 79.94Q303.84 81.15 299.65 81.15L299.65 81.15Q295.46 81.15 292.34 79.89Q289.22 78.63 287.49 76.07Q285.75 73.50 285.70 69.58L285.70 69.58L293.45 69.58Q293.55 71.20 294.31 72.28Q295.08 73.35 296.43 73.91Q297.78 74.46 299.56 74.46L299.56 74.46Q301.19 74.46 302.34 74.02Q303.49 73.58 304.11 72.80Q304.74 72.01 304.75 71.00L304.75 71.00Q304.74 70.05 304.16 69.38Q303.59 68.70 302.41 68.20Q301.22 67.70 299.39 67.28L299.39 67.28L295.90 66.46Q291.55 65.46 289.05 63.23Q286.55 61.00 286.57 57.20L286.57 57.20Q286.55 54.09 288.24 51.76Q289.92 49.42 292.89 48.12Q295.87 46.81 299.67 46.81L299.67 46.81Q303.56 46.81 306.43 48.12Q309.29 49.44 310.88 51.81Q312.46 54.18 312.49 57.30L312.49 57.30Z" fill="url(#mgT)"></path>
</svg>